<mxfile host="app.diagrams.net" agent="Mozilla/5.0 (Windows NT 10.0; Win64; x64) AppleWebKit/537.36 (KHTML, like Gecko) Chrome/136.0.0.0 Safari/537.36" version="27.0.8">
  <diagram name="Page-1" id="zMtw91ButQq-_RUwULKP">
    <mxGraphModel dx="1895" dy="1022" grid="1" gridSize="10" guides="1" tooltips="1" connect="1" arrows="1" fold="1" page="1" pageScale="1" pageWidth="827" pageHeight="1169" background="light-dark(#FFFFFF,#000000)" math="0" shadow="1" adaptiveColors="simple">
      <root>
        <mxCell id="0" />
        <mxCell id="1" parent="0" />
        <mxCell id="3Xr7Yztr4hI3ZwO242Rs-13" value="&lt;font style=&quot;font-size: 18px;&quot;&gt;Memory unit&lt;/font&gt;&lt;div&gt;&lt;font style=&quot;font-size: 18px;&quot;&gt;65535 x 8&lt;/font&gt;&lt;/div&gt;" style="rounded=0;whiteSpace=wrap;html=1;fillStyle=auto;labelBackgroundColor=none;fillColor=#182E3E;strokeColor=#FFFFFF;fontColor=#FFFFFF;" parent="1" vertex="1">
          <mxGeometry x="329" y="120" width="210" height="130" as="geometry" />
        </mxCell>
        <mxCell id="3Xr7Yztr4hI3ZwO242Rs-69" value="" style="edgeStyle=orthogonalEdgeStyle;rounded=0;orthogonalLoop=1;jettySize=auto;html=1;labelBackgroundColor=none;fontColor=default;strokeColor=#23445D;" parent="1" source="3Xr7Yztr4hI3ZwO242Rs-14" target="3Xr7Yztr4hI3ZwO242Rs-13" edge="1">
          <mxGeometry relative="1" as="geometry">
            <Array as="points">
              <mxPoint x="434" y="270" />
              <mxPoint x="600" y="270" />
              <mxPoint x="600" y="220" />
            </Array>
          </mxGeometry>
        </mxCell>
        <mxCell id="3Xr7Yztr4hI3ZwO242Rs-70" value="Address" style="edgeLabel;html=1;align=center;verticalAlign=middle;resizable=0;points=[];labelBackgroundColor=none;rounded=0;fontColor=light-dark(#000000, #121212);" parent="3Xr7Yztr4hI3ZwO242Rs-69" vertex="1" connectable="0">
          <mxGeometry x="0.4545" y="2" relative="1" as="geometry">
            <mxPoint x="22" y="7" as="offset" />
          </mxGeometry>
        </mxCell>
        <mxCell id="3Xr7Yztr4hI3ZwO242Rs-14" value="&lt;font style=&quot;font-size: 18px;&quot;&gt;MAR&lt;/font&gt;" style="rounded=0;whiteSpace=wrap;html=1;labelBackgroundColor=none;fillColor=#182E3E;strokeColor=#FFFFFF;fontColor=#FFFFFF;" parent="1" vertex="1">
          <mxGeometry x="304" y="300" width="260" height="50" as="geometry" />
        </mxCell>
        <mxCell id="axf-uOj5ak__-VpBUpMi-20" style="edgeStyle=orthogonalEdgeStyle;rounded=0;orthogonalLoop=1;jettySize=auto;html=1;entryX=0.25;entryY=1;entryDx=0;entryDy=0;" parent="1" source="3Xr7Yztr4hI3ZwO242Rs-17" target="axf-uOj5ak__-VpBUpMi-19" edge="1">
          <mxGeometry relative="1" as="geometry">
            <Array as="points">
              <mxPoint x="436" y="750" />
            </Array>
          </mxGeometry>
        </mxCell>
        <mxCell id="3Xr7Yztr4hI3ZwO242Rs-17" value="&lt;font style=&quot;font-size: 18px;&quot;&gt;PC&lt;/font&gt;" style="rounded=0;whiteSpace=wrap;html=1;labelBackgroundColor=none;fillColor=#182E3E;strokeColor=#FFFFFF;fontColor=#FFFFFF;" parent="1" vertex="1">
          <mxGeometry x="306" y="662.5" width="260" height="50" as="geometry" />
        </mxCell>
        <mxCell id="ulZsRQke4o-UjUVJtsJr-6" style="edgeStyle=orthogonalEdgeStyle;rounded=0;orthogonalLoop=1;jettySize=auto;html=1;entryX=0.5;entryY=0;entryDx=0;entryDy=0;" parent="1" source="3Xr7Yztr4hI3ZwO242Rs-18" target="axf-uOj5ak__-VpBUpMi-10" edge="1">
          <mxGeometry relative="1" as="geometry">
            <Array as="points">
              <mxPoint x="730" y="1077" />
            </Array>
          </mxGeometry>
        </mxCell>
        <mxCell id="ulZsRQke4o-UjUVJtsJr-7" style="edgeStyle=orthogonalEdgeStyle;rounded=0;orthogonalLoop=1;jettySize=auto;html=1;entryX=0.5;entryY=0;entryDx=0;entryDy=0;" parent="1" source="3Xr7Yztr4hI3ZwO242Rs-18" target="axf-uOj5ak__-VpBUpMi-16" edge="1">
          <mxGeometry relative="1" as="geometry" />
        </mxCell>
        <mxCell id="ulZsRQke4o-UjUVJtsJr-8" style="edgeStyle=orthogonalEdgeStyle;rounded=0;orthogonalLoop=1;jettySize=auto;html=1;entryX=0.5;entryY=0;entryDx=0;entryDy=0;" parent="1" source="3Xr7Yztr4hI3ZwO242Rs-18" target="axf-uOj5ak__-VpBUpMi-13" edge="1">
          <mxGeometry relative="1" as="geometry">
            <Array as="points">
              <mxPoint x="460" y="1123" />
              <mxPoint x="264" y="1123" />
            </Array>
          </mxGeometry>
        </mxCell>
        <mxCell id="ulZsRQke4o-UjUVJtsJr-9" style="edgeStyle=orthogonalEdgeStyle;shape=flexArrow;rounded=0;orthogonalLoop=1;jettySize=auto;html=1;exitX=0.25;exitY=0;exitDx=0;exitDy=0;entryX=0.25;entryY=1;entryDx=0;entryDy=0;" parent="1" source="3Xr7Yztr4hI3ZwO242Rs-18" target="3Xr7Yztr4hI3ZwO242Rs-19" edge="1">
          <mxGeometry relative="1" as="geometry">
            <Array as="points">
              <mxPoint x="479" y="1040" />
              <mxPoint x="210" y="1040" />
              <mxPoint x="210" y="480" />
              <mxPoint x="485" y="480" />
            </Array>
          </mxGeometry>
        </mxCell>
        <mxCell id="ulZsRQke4o-UjUVJtsJr-10" style="edgeStyle=orthogonalEdgeStyle;rounded=0;orthogonalLoop=1;jettySize=auto;html=1;entryX=0.75;entryY=1;entryDx=0;entryDy=0;" parent="1" source="3Xr7Yztr4hI3ZwO242Rs-18" target="3Xr7Yztr4hI3ZwO242Rs-28" edge="1">
          <mxGeometry relative="1" as="geometry" />
        </mxCell>
        <mxCell id="3Xr7Yztr4hI3ZwO242Rs-18" value="&lt;font style=&quot;font-size: 18px;&quot;&gt;IR&lt;/font&gt;" style="rounded=0;whiteSpace=wrap;html=1;labelBackgroundColor=none;fillColor=#182E3E;strokeColor=#FFFFFF;fontColor=#FFFFFF;" parent="1" vertex="1">
          <mxGeometry x="414" y="1052.5" width="260" height="50" as="geometry" />
        </mxCell>
        <mxCell id="3Xr7Yztr4hI3ZwO242Rs-71" value="" style="edgeStyle=orthogonalEdgeStyle;rounded=0;orthogonalLoop=1;jettySize=auto;html=1;labelBackgroundColor=none;fontColor=default;strokeColor=#23445D;" parent="1" source="3Xr7Yztr4hI3ZwO242Rs-19" target="3Xr7Yztr4hI3ZwO242Rs-20" edge="1">
          <mxGeometry relative="1" as="geometry">
            <Array as="points">
              <mxPoint x="595" y="525" />
            </Array>
          </mxGeometry>
        </mxCell>
        <mxCell id="3Xr7Yztr4hI3ZwO242Rs-72" value="Address" style="edgeLabel;html=1;align=center;verticalAlign=middle;resizable=0;points=[];labelBackgroundColor=none;rounded=0;fontColor=light-dark(#000000, #121212);" parent="3Xr7Yztr4hI3ZwO242Rs-71" vertex="1" connectable="0">
          <mxGeometry x="0.4174" y="-2" relative="1" as="geometry">
            <mxPoint x="33" y="-33" as="offset" />
          </mxGeometry>
        </mxCell>
        <mxCell id="3Xr7Yztr4hI3ZwO242Rs-19" value="&lt;span style=&quot;font-size: 18px;&quot;&gt;GAR&lt;/span&gt;" style="rounded=0;whiteSpace=wrap;html=1;labelBackgroundColor=none;fillColor=#182E3E;strokeColor=#FFFFFF;fontColor=#FFFFFF;" parent="1" vertex="1">
          <mxGeometry x="420" y="395" width="260" height="50" as="geometry" />
        </mxCell>
        <mxCell id="3Xr7Yztr4hI3ZwO242Rs-20" value="&lt;div style=&quot;line-height: 150%;&quot;&gt;&lt;span style=&quot;font-size: 18px; line-height: 150%;&quot;&gt;General Registers Unit&lt;/span&gt;&lt;div&gt;&lt;span style=&quot;font-size: 18px; line-height: 150%;&quot;&gt;x32&lt;/span&gt;&lt;/div&gt;&lt;/div&gt;" style="rounded=0;whiteSpace=wrap;html=1;fillStyle=auto;labelBackgroundColor=none;fillColor=#182E3E;strokeColor=#FFFFFF;fontColor=#FFFFFF;" parent="1" vertex="1">
          <mxGeometry x="334" y="495" width="210" height="130" as="geometry" />
        </mxCell>
        <mxCell id="axf-uOj5ak__-VpBUpMi-21" style="edgeStyle=orthogonalEdgeStyle;rounded=0;orthogonalLoop=1;jettySize=auto;html=1;entryX=0.75;entryY=1;entryDx=0;entryDy=0;" parent="1" source="3Xr7Yztr4hI3ZwO242Rs-26" target="axf-uOj5ak__-VpBUpMi-19" edge="1">
          <mxGeometry relative="1" as="geometry" />
        </mxCell>
        <mxCell id="3Xr7Yztr4hI3ZwO242Rs-26" value="&lt;font style=&quot;font-size: 18px;&quot;&gt;RS1&lt;/font&gt;" style="rounded=0;whiteSpace=wrap;html=1;labelBackgroundColor=none;fillColor=#182E3E;strokeColor=#FFFFFF;fontColor=#FFFFFF;" parent="1" vertex="1">
          <mxGeometry x="304" y="775" width="260" height="50" as="geometry" />
        </mxCell>
        <mxCell id="3Xr7Yztr4hI3ZwO242Rs-38" style="edgeStyle=orthogonalEdgeStyle;rounded=0;orthogonalLoop=1;jettySize=auto;html=1;entryX=0.25;entryY=1;entryDx=0;entryDy=0;labelBackgroundColor=none;fontColor=default;strokeColor=#23445D;" parent="1" source="3Xr7Yztr4hI3ZwO242Rs-27" target="3Xr7Yztr4hI3ZwO242Rs-34" edge="1">
          <mxGeometry relative="1" as="geometry" />
        </mxCell>
        <mxCell id="3Xr7Yztr4hI3ZwO242Rs-27" value="&lt;font style=&quot;font-size: 18px;&quot;&gt;RS2&lt;/font&gt;" style="rounded=0;whiteSpace=wrap;html=1;labelBackgroundColor=none;fillColor=#182E3E;strokeColor=#FFFFFF;fontColor=#FFFFFF;" parent="1" vertex="1">
          <mxGeometry x="304" y="875" width="260" height="50" as="geometry" />
        </mxCell>
        <mxCell id="3Xr7Yztr4hI3ZwO242Rs-37" style="edgeStyle=orthogonalEdgeStyle;rounded=0;orthogonalLoop=1;jettySize=auto;html=1;entryX=0.75;entryY=1;entryDx=0;entryDy=0;labelBackgroundColor=none;fontColor=default;strokeColor=#23445D;" parent="1" source="3Xr7Yztr4hI3ZwO242Rs-28" target="3Xr7Yztr4hI3ZwO242Rs-34" edge="1">
          <mxGeometry relative="1" as="geometry" />
        </mxCell>
        <mxCell id="3Xr7Yztr4hI3ZwO242Rs-28" value="&lt;font style=&quot;font-size: 18px;&quot;&gt;IMM&lt;/font&gt;" style="rounded=0;whiteSpace=wrap;html=1;labelBackgroundColor=none;fillColor=#182E3E;strokeColor=#FFFFFF;fontColor=#FFFFFF;" parent="1" vertex="1">
          <mxGeometry x="304" y="965" width="260" height="50" as="geometry" />
        </mxCell>
        <mxCell id="axf-uOj5ak__-VpBUpMi-23" style="edgeStyle=orthogonalEdgeStyle;rounded=0;orthogonalLoop=1;jettySize=auto;html=1;entryX=0.5;entryY=1;entryDx=0;entryDy=0;" parent="1" source="3Xr7Yztr4hI3ZwO242Rs-29" target="3Xr7Yztr4hI3ZwO242Rs-102" edge="1">
          <mxGeometry relative="1" as="geometry">
            <Array as="points">
              <mxPoint x="730" y="810" />
              <mxPoint x="775" y="810" />
            </Array>
          </mxGeometry>
        </mxCell>
        <mxCell id="axf-uOj5ak__-VpBUpMi-24" style="edgeStyle=orthogonalEdgeStyle;rounded=0;orthogonalLoop=1;jettySize=auto;html=1;exitX=0.25;exitY=0;exitDx=0;exitDy=0;entryX=0.5;entryY=1;entryDx=0;entryDy=0;" parent="1" source="3Xr7Yztr4hI3ZwO242Rs-29" target="3Xr7Yztr4hI3ZwO242Rs-101" edge="1">
          <mxGeometry relative="1" as="geometry">
            <Array as="points">
              <mxPoint x="710" y="800" />
              <mxPoint x="730" y="800" />
            </Array>
          </mxGeometry>
        </mxCell>
        <mxCell id="axf-uOj5ak__-VpBUpMi-25" style="edgeStyle=orthogonalEdgeStyle;rounded=0;orthogonalLoop=1;jettySize=auto;html=1;exitX=0.75;exitY=0;exitDx=0;exitDy=0;entryX=0.5;entryY=1;entryDx=0;entryDy=0;" parent="1" source="3Xr7Yztr4hI3ZwO242Rs-29" target="3Xr7Yztr4hI3ZwO242Rs-103" edge="1">
          <mxGeometry relative="1" as="geometry">
            <Array as="points">
              <mxPoint x="750" y="820" />
              <mxPoint x="820" y="820" />
            </Array>
          </mxGeometry>
        </mxCell>
        <mxCell id="3Xr7Yztr4hI3ZwO242Rs-29" value="&lt;font style=&quot;font-size: 16px;&quot;&gt;ALU&lt;/font&gt;" style="whiteSpace=wrap;html=1;aspect=fixed;labelBackgroundColor=none;rounded=0;fillColor=#182E3E;strokeColor=#FFFFFF;fontColor=#FFFFFF;" parent="1" vertex="1">
          <mxGeometry x="690" y="835" width="80" height="80" as="geometry" />
        </mxCell>
        <mxCell id="3Xr7Yztr4hI3ZwO242Rs-35" style="edgeStyle=orthogonalEdgeStyle;rounded=0;orthogonalLoop=1;jettySize=auto;html=1;entryX=0;entryY=0.75;entryDx=0;entryDy=0;labelBackgroundColor=none;fontColor=default;strokeColor=#23445D;" parent="1" source="3Xr7Yztr4hI3ZwO242Rs-34" target="3Xr7Yztr4hI3ZwO242Rs-29" edge="1">
          <mxGeometry relative="1" as="geometry" />
        </mxCell>
        <mxCell id="3Xr7Yztr4hI3ZwO242Rs-34" value="" style="shape=trapezoid;perimeter=trapezoidPerimeter;whiteSpace=wrap;html=1;fixedSize=1;rotation=90;labelBackgroundColor=none;rounded=0;fillColor=#182E3E;strokeColor=#FFFFFF;fontColor=#FFFFFF;" parent="1" vertex="1">
          <mxGeometry x="580" y="925" width="120" height="40" as="geometry" />
        </mxCell>
        <mxCell id="3Xr7Yztr4hI3ZwO242Rs-50" value="" style="html=1;points=[[0,0,0,0,5],[0,1,0,0,-5],[1,0,0,0,5],[1,1,0,0,-5]];perimeter=orthogonalPerimeter;outlineConnect=0;targetShapes=umlLifeline;portConstraint=eastwest;newEdgeStyle={&quot;curved&quot;:0,&quot;rounded&quot;:0};labelBackgroundColor=none;rounded=0;fillColor=#182E3E;strokeColor=#FFFFFF;fontColor=#FFFFFF;" parent="1" vertex="1">
          <mxGeometry x="847" y="80" width="10" height="1460" as="geometry" />
        </mxCell>
        <mxCell id="3Xr7Yztr4hI3ZwO242Rs-53" value="" style="html=1;points=[[0,0,0,0,5],[0,1,0,0,-5],[1,0,0,0,5],[1,1,0,0,-5]];perimeter=orthogonalPerimeter;outlineConnect=0;targetShapes=umlLifeline;portConstraint=eastwest;newEdgeStyle={&quot;curved&quot;:0,&quot;rounded&quot;:0};rotation=90;labelBackgroundColor=none;rounded=0;fillColor=#182E3E;strokeColor=#FFFFFF;fontColor=#FFFFFF;" parent="1" vertex="1">
          <mxGeometry x="480" y="1169" width="10" height="745" as="geometry" />
        </mxCell>
        <mxCell id="3Xr7Yztr4hI3ZwO242Rs-54" value="" style="html=1;points=[[0,0,0,0,5],[0,1,0,0,-5],[1,0,0,0,5],[1,1,0,0,-5]];perimeter=orthogonalPerimeter;outlineConnect=0;targetShapes=umlLifeline;portConstraint=eastwest;newEdgeStyle={&quot;curved&quot;:0,&quot;rounded&quot;:0};labelBackgroundColor=none;rounded=0;fillColor=#182E3E;strokeColor=#FFFFFF;fontColor=#FFFFFF;" parent="1" vertex="1">
          <mxGeometry x="110" y="85" width="10" height="1460" as="geometry" />
        </mxCell>
        <mxCell id="3Xr7Yztr4hI3ZwO242Rs-59" value="" style="html=1;shadow=0;dashed=0;align=center;verticalAlign=middle;shape=mxgraph.arrows2.arrow;dy=0.6;dx=40;notch=0;labelBackgroundColor=none;rounded=0;fillColor=#182E3E;strokeColor=#FFFFFF;fontColor=#FFFFFF;" parent="1" vertex="1">
          <mxGeometry x="564" y="307.5" width="280" height="35" as="geometry" />
        </mxCell>
        <mxCell id="3Xr7Yztr4hI3ZwO242Rs-60" value="" style="html=1;shadow=0;dashed=0;align=center;verticalAlign=middle;shape=mxgraph.arrows2.arrow;dy=0.6;dx=40;notch=0;labelBackgroundColor=none;rounded=0;fillColor=#182E3E;strokeColor=#FFFFFF;fontColor=#FFFFFF;" parent="1" vertex="1">
          <mxGeometry x="567" y="670" width="280" height="35" as="geometry" />
        </mxCell>
        <mxCell id="3Xr7Yztr4hI3ZwO242Rs-63" value="" style="html=1;shadow=0;dashed=0;align=center;verticalAlign=middle;shape=mxgraph.arrows2.arrow;dy=0.6;dx=40;notch=0;textShadow=0;labelBackgroundColor=none;rounded=0;fillColor=#182E3E;strokeColor=#FFFFFF;fontColor=#FFFFFF;" parent="1" vertex="1">
          <mxGeometry x="544" y="542.5" width="304" height="35" as="geometry" />
        </mxCell>
        <mxCell id="3Xr7Yztr4hI3ZwO242Rs-64" value="" style="html=1;shadow=0;dashed=0;align=center;verticalAlign=middle;shape=mxgraph.arrows2.arrow;dy=0.6;dx=40;notch=0;labelBackgroundColor=none;rounded=0;fillColor=#182E3E;strokeColor=#FFFFFF;fontColor=#FFFFFF;" parent="1" vertex="1">
          <mxGeometry x="540" y="167.5" width="304" height="35" as="geometry" />
        </mxCell>
        <mxCell id="3Xr7Yztr4hI3ZwO242Rs-68" value="" style="html=1;shadow=0;dashed=0;align=center;verticalAlign=middle;shape=mxgraph.arrows2.arrow;dy=0.6;dx=40;notch=0;textShadow=0;labelBackgroundColor=none;rounded=0;fillColor=#182E3E;strokeColor=#FFFFFF;fontColor=#FFFFFF;" parent="1" vertex="1">
          <mxGeometry x="770" y="857.5" width="70" height="35" as="geometry" />
        </mxCell>
        <mxCell id="3Xr7Yztr4hI3ZwO242Rs-73" value="" style="html=1;shadow=0;dashed=0;align=center;verticalAlign=middle;shape=mxgraph.arrows2.arrow;dy=0.6;dx=40;notch=0;labelBackgroundColor=none;rounded=0;fillColor=#182E3E;strokeColor=#FFFFFF;fontColor=#FFFFFF;" parent="1" vertex="1">
          <mxGeometry x="120" y="167.5" width="210" height="35" as="geometry" />
        </mxCell>
        <mxCell id="3Xr7Yztr4hI3ZwO242Rs-74" value="" style="html=1;shadow=0;dashed=0;align=center;verticalAlign=middle;shape=mxgraph.arrows2.arrow;dy=0.6;dx=40;notch=0;labelBackgroundColor=none;rounded=0;fillColor=#182E3E;strokeColor=#FFFFFF;fontColor=#FFFFFF;" parent="1" vertex="1">
          <mxGeometry x="120" y="307.5" width="180" height="35" as="geometry" />
        </mxCell>
        <mxCell id="3Xr7Yztr4hI3ZwO242Rs-75" value="" style="html=1;shadow=0;dashed=0;align=center;verticalAlign=middle;shape=mxgraph.arrows2.arrow;dy=0.6;dx=40;notch=0;labelBackgroundColor=none;rounded=0;fillColor=#182E3E;strokeColor=#FFFFFF;fontColor=#FFFFFF;" parent="1" vertex="1">
          <mxGeometry x="123" y="670" width="180" height="35" as="geometry" />
        </mxCell>
        <mxCell id="3Xr7Yztr4hI3ZwO242Rs-76" value="" style="html=1;shadow=0;dashed=0;align=center;verticalAlign=middle;shape=mxgraph.arrows2.arrow;dy=0.6;dx=40;notch=0;labelBackgroundColor=none;rounded=0;fillColor=#182E3E;strokeColor=#FFFFFF;fontColor=#FFFFFF;" parent="1" vertex="1">
          <mxGeometry x="120" y="1060" width="290" height="35" as="geometry" />
        </mxCell>
        <mxCell id="3Xr7Yztr4hI3ZwO242Rs-77" value="" style="html=1;shadow=0;dashed=0;align=center;verticalAlign=middle;shape=mxgraph.arrows2.arrow;dy=0.6;dx=40;notch=0;labelBackgroundColor=none;rounded=0;fillColor=#182E3E;strokeColor=#FFFFFF;fontColor=#FFFFFF;" parent="1" vertex="1">
          <mxGeometry x="119" y="402.5" width="301" height="35" as="geometry" />
        </mxCell>
        <mxCell id="3Xr7Yztr4hI3ZwO242Rs-78" value="" style="html=1;shadow=0;dashed=0;align=center;verticalAlign=middle;shape=mxgraph.arrows2.arrow;dy=0.6;dx=40;notch=0;labelBackgroundColor=none;rounded=0;fillColor=#182E3E;strokeColor=#FFFFFF;fontColor=#FFFFFF;" parent="1" vertex="1">
          <mxGeometry x="124" y="542.5" width="210" height="35" as="geometry" />
        </mxCell>
        <mxCell id="3Xr7Yztr4hI3ZwO242Rs-79" value="" style="html=1;shadow=0;dashed=0;align=center;verticalAlign=middle;shape=mxgraph.arrows2.arrow;dy=0.6;dx=40;notch=0;labelBackgroundColor=none;rounded=0;fillColor=#182E3E;strokeColor=#FFFFFF;fontColor=#FFFFFF;" parent="1" vertex="1">
          <mxGeometry x="119" y="782.5" width="180" height="35" as="geometry" />
        </mxCell>
        <mxCell id="3Xr7Yztr4hI3ZwO242Rs-80" value="" style="html=1;shadow=0;dashed=0;align=center;verticalAlign=middle;shape=mxgraph.arrows2.arrow;dy=0.6;dx=40;notch=0;labelBackgroundColor=none;rounded=0;fillColor=#182E3E;strokeColor=#FFFFFF;fontColor=#FFFFFF;" parent="1" vertex="1">
          <mxGeometry x="120" y="882.5" width="180" height="35" as="geometry" />
        </mxCell>
        <mxCell id="3Xr7Yztr4hI3ZwO242Rs-81" value="" style="html=1;shadow=0;dashed=0;align=center;verticalAlign=middle;shape=mxgraph.arrows2.arrow;dy=0.6;dx=40;notch=0;labelBackgroundColor=none;rounded=0;fillColor=#182E3E;strokeColor=#FFFFFF;fontColor=#FFFFFF;" parent="1" vertex="1">
          <mxGeometry x="124" y="972.5" width="180" height="35" as="geometry" />
        </mxCell>
        <mxCell id="3Xr7Yztr4hI3ZwO242Rs-83" value="0" style="text;html=1;align=center;verticalAlign=middle;resizable=0;points=[];autosize=1;strokeColor=none;fillColor=none;labelBackgroundColor=none;rounded=0;fontColor=#000000;" parent="1" vertex="1">
          <mxGeometry x="775" y="150" width="30" height="30" as="geometry" />
        </mxCell>
        <mxCell id="3Xr7Yztr4hI3ZwO242Rs-84" value="1" style="text;html=1;align=center;verticalAlign=middle;resizable=0;points=[];autosize=1;strokeColor=none;fillColor=none;labelBackgroundColor=none;rounded=0;fontColor=#000000;" parent="1" vertex="1">
          <mxGeometry x="775" y="290" width="30" height="30" as="geometry" />
        </mxCell>
        <mxCell id="3Xr7Yztr4hI3ZwO242Rs-85" value="4" style="text;html=1;align=center;verticalAlign=middle;resizable=0;points=[];autosize=1;strokeColor=none;fillColor=none;labelBackgroundColor=none;rounded=0;fontColor=#000000;" parent="1" vertex="1">
          <mxGeometry x="776" y="650" width="30" height="30" as="geometry" />
        </mxCell>
        <mxCell id="3Xr7Yztr4hI3ZwO242Rs-88" value="&lt;div&gt;3&lt;/div&gt;" style="text;html=1;align=center;verticalAlign=middle;resizable=0;points=[];autosize=1;strokeColor=none;fillColor=none;labelBackgroundColor=none;rounded=0;fontColor=#000000;" parent="1" vertex="1">
          <mxGeometry x="775" y="525" width="30" height="30" as="geometry" />
        </mxCell>
        <mxCell id="3Xr7Yztr4hI3ZwO242Rs-89" value="5" style="text;html=1;align=center;verticalAlign=middle;resizable=0;points=[];autosize=1;strokeColor=none;fillColor=none;labelBackgroundColor=none;rounded=0;fontColor=light-dark(#000000, #121212);" parent="1" vertex="1">
          <mxGeometry x="775" y="845" width="30" height="30" as="geometry" />
        </mxCell>
        <mxCell id="3Xr7Yztr4hI3ZwO242Rs-92" value="S1" style="text;html=1;align=center;verticalAlign=middle;resizable=0;points=[];autosize=1;strokeColor=none;fillColor=none;labelBackgroundColor=none;rounded=0;fontColor=#000000;" parent="1" vertex="1">
          <mxGeometry x="670" y="35" width="40" height="30" as="geometry" />
        </mxCell>
        <mxCell id="ulZsRQke4o-UjUVJtsJr-2" style="edgeStyle=orthogonalEdgeStyle;rounded=0;orthogonalLoop=1;jettySize=auto;html=1;" parent="1" source="3Xr7Yztr4hI3ZwO242Rs-93" target="3Xr7Yztr4hI3ZwO242Rs-158" edge="1">
          <mxGeometry relative="1" as="geometry" />
        </mxCell>
        <mxCell id="3Xr7Yztr4hI3ZwO242Rs-93" value="S2" style="text;html=1;align=center;verticalAlign=middle;resizable=0;points=[];autosize=1;strokeColor=none;fillColor=none;labelBackgroundColor=none;rounded=0;fontColor=#000000;" parent="1" vertex="1">
          <mxGeometry x="670" y="65" width="40" height="30" as="geometry" />
        </mxCell>
        <mxCell id="3Xr7Yztr4hI3ZwO242Rs-94" value="S3" style="text;html=1;align=center;verticalAlign=middle;resizable=0;points=[];autosize=1;strokeColor=none;fillColor=none;labelBackgroundColor=none;rounded=0;fontColor=#000000;" parent="1" vertex="1">
          <mxGeometry x="670" y="95" width="40" height="30" as="geometry" />
        </mxCell>
        <mxCell id="3Xr7Yztr4hI3ZwO242Rs-101" value="&lt;font style=&quot;font-size: 16px;&quot;&gt;P&lt;/font&gt;" style="whiteSpace=wrap;html=1;aspect=fixed;labelBackgroundColor=none;rounded=0;fillColor=#182E3E;strokeColor=#FFFFFF;fontColor=#FFFFFF;" parent="1" vertex="1">
          <mxGeometry x="710" y="735" width="40" height="40" as="geometry" />
        </mxCell>
        <mxCell id="3Xr7Yztr4hI3ZwO242Rs-102" value="&lt;font style=&quot;font-size: 16px;&quot;&gt;N&lt;/font&gt;" style="whiteSpace=wrap;html=1;aspect=fixed;labelBackgroundColor=none;rounded=0;fillColor=#182E3E;strokeColor=#FFFFFF;fontColor=#FFFFFF;" parent="1" vertex="1">
          <mxGeometry x="755" y="735" width="40" height="40" as="geometry" />
        </mxCell>
        <mxCell id="3Xr7Yztr4hI3ZwO242Rs-103" value="&lt;span style=&quot;font-size: 16px;&quot;&gt;Z&lt;/span&gt;" style="whiteSpace=wrap;html=1;aspect=fixed;labelBackgroundColor=none;rounded=0;fillColor=#182E3E;strokeColor=#FFFFFF;fontColor=#FFFFFF;" parent="1" vertex="1">
          <mxGeometry x="800" y="735" width="40" height="40" as="geometry" />
        </mxCell>
        <mxCell id="3Xr7Yztr4hI3ZwO242Rs-108" value="&lt;font style=&quot;font-size: 16px;&quot;&gt;BUS&lt;/font&gt;" style="text;html=1;align=center;verticalAlign=middle;resizable=0;points=[];autosize=1;strokeColor=none;fillColor=none;labelBackgroundColor=none;fontColor=light-dark(#000000, #121212);" parent="1" vertex="1">
          <mxGeometry x="650" y="1515" width="60" height="30" as="geometry" />
        </mxCell>
        <mxCell id="3Xr7Yztr4hI3ZwO242Rs-109" value="" style="endArrow=none;html=1;rounded=0;strokeColor=#23445D;" parent="1" edge="1">
          <mxGeometry width="50" height="50" relative="1" as="geometry">
            <mxPoint x="40" y="10" as="sourcePoint" />
            <mxPoint x="960" y="10" as="targetPoint" />
          </mxGeometry>
        </mxCell>
        <mxCell id="3Xr7Yztr4hI3ZwO242Rs-110" value="" style="endArrow=none;html=1;rounded=0;strokeColor=#23445D;" parent="1" edge="1">
          <mxGeometry width="50" height="50" relative="1" as="geometry">
            <mxPoint x="960" y="1580" as="sourcePoint" />
            <mxPoint x="960" y="10" as="targetPoint" />
          </mxGeometry>
        </mxCell>
        <mxCell id="3Xr7Yztr4hI3ZwO242Rs-111" value="" style="endArrow=none;html=1;rounded=0;strokeColor=#23445D;" parent="1" edge="1">
          <mxGeometry width="50" height="50" relative="1" as="geometry">
            <mxPoint x="30" y="1580" as="sourcePoint" />
            <mxPoint x="960" y="1580" as="targetPoint" />
          </mxGeometry>
        </mxCell>
        <mxCell id="3Xr7Yztr4hI3ZwO242Rs-112" value="" style="endArrow=none;html=1;rounded=0;strokeColor=#23445D;" parent="1" edge="1">
          <mxGeometry width="50" height="50" relative="1" as="geometry">
            <mxPoint x="40" y="1580" as="sourcePoint" />
            <mxPoint x="40" as="targetPoint" />
          </mxGeometry>
        </mxCell>
        <mxCell id="3Xr7Yztr4hI3ZwO242Rs-115" value="&lt;span style=&quot;font-size: 18px;&quot;&gt;INPR&lt;/span&gt;" style="rounded=0;whiteSpace=wrap;html=1;labelBackgroundColor=none;fillColor=#182E3E;strokeColor=#FFFFFF;fontColor=#FFFFFF;" parent="1" vertex="1">
          <mxGeometry x="304" y="1220" width="260" height="50" as="geometry" />
        </mxCell>
        <mxCell id="axf-uOj5ak__-VpBUpMi-8" style="edgeStyle=orthogonalEdgeStyle;rounded=0;orthogonalLoop=1;jettySize=auto;html=1;entryX=0.5;entryY=1;entryDx=0;entryDy=0;" parent="1" source="3Xr7Yztr4hI3ZwO242Rs-116" target="3Xr7Yztr4hI3ZwO242Rs-131" edge="1">
          <mxGeometry relative="1" as="geometry">
            <Array as="points">
              <mxPoint x="440" y="1430" />
              <mxPoint x="730" y="1430" />
            </Array>
          </mxGeometry>
        </mxCell>
        <mxCell id="3Xr7Yztr4hI3ZwO242Rs-116" value="&lt;font style=&quot;font-size: 18px;&quot;&gt;OUTR&lt;/font&gt;" style="rounded=0;whiteSpace=wrap;html=1;labelBackgroundColor=none;fillColor=#182E3E;strokeColor=#FFFFFF;fontColor=#FFFFFF;" parent="1" vertex="1">
          <mxGeometry x="304" y="1455" width="260" height="50" as="geometry" />
        </mxCell>
        <mxCell id="3Xr7Yztr4hI3ZwO242Rs-117" value="" style="html=1;shadow=0;dashed=0;align=center;verticalAlign=middle;shape=mxgraph.arrows2.arrow;dy=0.6;dx=40;notch=0;labelBackgroundColor=none;rounded=0;fillColor=#182E3E;strokeColor=#FFFFFF;fontColor=#FFFFFF;" parent="1" vertex="1">
          <mxGeometry x="564" y="1227.5" width="276" height="35" as="geometry" />
        </mxCell>
        <mxCell id="3Xr7Yztr4hI3ZwO242Rs-119" value="" style="html=1;shadow=0;dashed=0;align=center;verticalAlign=middle;shape=mxgraph.arrows2.arrow;dy=0.6;dx=40;notch=0;labelBackgroundColor=none;rounded=0;fillColor=#182E3E;strokeColor=#FFFFFF;fontColor=#FFFFFF;" parent="1" vertex="1">
          <mxGeometry x="120" y="1227.5" width="184" height="35" as="geometry" />
        </mxCell>
        <mxCell id="3Xr7Yztr4hI3ZwO242Rs-120" value="" style="html=1;shadow=0;dashed=0;align=center;verticalAlign=middle;shape=mxgraph.arrows2.arrow;dy=0.6;dx=40;notch=0;labelBackgroundColor=none;rounded=0;fillColor=#182E3E;strokeColor=#FFFFFF;fontColor=#FFFFFF;" parent="1" vertex="1">
          <mxGeometry x="120" y="1462.5" width="184" height="35" as="geometry" />
        </mxCell>
        <mxCell id="3Xr7Yztr4hI3ZwO242Rs-121" value="6" style="text;html=1;align=center;verticalAlign=middle;resizable=0;points=[];autosize=1;strokeColor=none;fillColor=none;labelBackgroundColor=none;rounded=0;fontColor=light-dark(#000000, #121212);" parent="1" vertex="1">
          <mxGeometry x="770.34" y="1210" width="30" height="30" as="geometry" />
        </mxCell>
        <mxCell id="axf-uOj5ak__-VpBUpMi-7" style="edgeStyle=orthogonalEdgeStyle;rounded=0;orthogonalLoop=1;jettySize=auto;html=1;entryX=0.5;entryY=1;entryDx=0;entryDy=0;" parent="1" source="3Xr7Yztr4hI3ZwO242Rs-131" target="3Xr7Yztr4hI3ZwO242Rs-115" edge="1">
          <mxGeometry relative="1" as="geometry">
            <Array as="points">
              <mxPoint x="434" y="1300" />
            </Array>
          </mxGeometry>
        </mxCell>
        <mxCell id="3Xr7Yztr4hI3ZwO242Rs-131" value="&lt;font style=&quot;font-size: 15px;&quot;&gt;Interface Circuit&lt;/font&gt;" style="ellipse;whiteSpace=wrap;html=1;strokeColor=#FFFFFF;fontColor=#FFFFFF;fillColor=#182E3E;" parent="1" vertex="1">
          <mxGeometry x="665" y="1310" width="130" height="105" as="geometry" />
        </mxCell>
        <mxCell id="3Xr7Yztr4hI3ZwO242Rs-134" value="" style="html=1;shadow=0;dashed=0;align=center;verticalAlign=middle;shape=mxgraph.arrows2.arrow;dy=0.6;dx=40;notch=0;labelBackgroundColor=none;rounded=0;fillColor=#182E3E;strokeColor=#FFFFFF;fontColor=#FFFFFF;" parent="1" vertex="1">
          <mxGeometry x="564" y="1462.5" width="277" height="35" as="geometry" />
        </mxCell>
        <mxCell id="3Xr7Yztr4hI3ZwO242Rs-140" value="7" style="text;html=1;align=center;verticalAlign=middle;resizable=0;points=[];autosize=1;strokeColor=none;fillColor=none;labelBackgroundColor=none;rounded=0;fontColor=light-dark(#000000, #121212);" parent="1" vertex="1">
          <mxGeometry x="775" y="1450" width="30" height="30" as="geometry" />
        </mxCell>
        <mxCell id="3Xr7Yztr4hI3ZwO242Rs-158" value="&lt;font style=&quot;font-size: 18px;&quot;&gt;BUS&lt;/font&gt;" style="shape=cylinder3;whiteSpace=wrap;html=1;boundedLbl=1;backgroundOutline=1;size=15;strokeColor=#FFFFFF;fontColor=#FFFFFF;fillColor=#182E3E;" parent="1" vertex="1">
          <mxGeometry x="800.34" y="25" width="103.31" height="110" as="geometry" />
        </mxCell>
        <mxCell id="axf-uOj5ak__-VpBUpMi-10" value="&lt;span style=&quot;font-size: 18px;&quot;&gt;OPCODE&lt;/span&gt;" style="rounded=0;whiteSpace=wrap;html=1;labelBackgroundColor=none;fillColor=#182E3E;strokeColor=#FFFFFF;fontColor=#FFFFFF;" parent="1" vertex="1">
          <mxGeometry x="665" y="1140" width="130" height="50" as="geometry" />
        </mxCell>
        <mxCell id="axf-uOj5ak__-VpBUpMi-13" value="&lt;span style=&quot;font-size: 18px;&quot;&gt;FUNCT3&lt;/span&gt;" style="rounded=0;whiteSpace=wrap;html=1;labelBackgroundColor=none;fillColor=#182E3E;strokeColor=#FFFFFF;fontColor=#FFFFFF;" parent="1" vertex="1">
          <mxGeometry x="199" y="1140" width="130" height="50" as="geometry" />
        </mxCell>
        <mxCell id="axf-uOj5ak__-VpBUpMi-16" value="&lt;span style=&quot;font-size: 18px;&quot;&gt;FUNCT7&lt;/span&gt;" style="rounded=0;whiteSpace=wrap;html=1;labelBackgroundColor=none;fillColor=#182E3E;strokeColor=#FFFFFF;fontColor=#FFFFFF;" parent="1" vertex="1">
          <mxGeometry x="479" y="1140" width="130" height="50" as="geometry" />
        </mxCell>
        <mxCell id="axf-uOj5ak__-VpBUpMi-22" style="edgeStyle=orthogonalEdgeStyle;rounded=0;orthogonalLoop=1;jettySize=auto;html=1;entryX=0;entryY=0.25;entryDx=0;entryDy=0;" parent="1" source="axf-uOj5ak__-VpBUpMi-19" target="3Xr7Yztr4hI3ZwO242Rs-29" edge="1">
          <mxGeometry relative="1" as="geometry" />
        </mxCell>
        <mxCell id="axf-uOj5ak__-VpBUpMi-19" value="" style="shape=trapezoid;perimeter=trapezoidPerimeter;whiteSpace=wrap;html=1;fixedSize=1;rotation=90;labelBackgroundColor=none;rounded=0;fillColor=#182E3E;strokeColor=#FFFFFF;fontColor=#FFFFFF;" parent="1" vertex="1">
          <mxGeometry x="580" y="760" width="120" height="40" as="geometry" />
        </mxCell>
        <mxCell id="ulZsRQke4o-UjUVJtsJr-4" style="edgeStyle=orthogonalEdgeStyle;rounded=0;orthogonalLoop=1;jettySize=auto;html=1;entryX=-0.007;entryY=0.228;entryDx=0;entryDy=0;entryPerimeter=0;" parent="1" source="3Xr7Yztr4hI3ZwO242Rs-92" target="3Xr7Yztr4hI3ZwO242Rs-158" edge="1">
          <mxGeometry relative="1" as="geometry" />
        </mxCell>
        <mxCell id="ulZsRQke4o-UjUVJtsJr-5" style="edgeStyle=orthogonalEdgeStyle;rounded=0;orthogonalLoop=1;jettySize=auto;html=1;entryX=-0.001;entryY=0.765;entryDx=0;entryDy=0;entryPerimeter=0;" parent="1" source="3Xr7Yztr4hI3ZwO242Rs-94" target="3Xr7Yztr4hI3ZwO242Rs-158" edge="1">
          <mxGeometry relative="1" as="geometry" />
        </mxCell>
        <mxCell id="ulZsRQke4o-UjUVJtsJr-25" style="edgeStyle=orthogonalEdgeStyle;rounded=0;orthogonalLoop=1;jettySize=auto;html=1;" parent="1" edge="1">
          <mxGeometry relative="1" as="geometry">
            <mxPoint x="254.88000000000002" y="1330.01" as="targetPoint" />
            <mxPoint x="254.8799999999999" y="1360.01" as="sourcePoint" />
          </mxGeometry>
        </mxCell>
        <mxCell id="ulZsRQke4o-UjUVJtsJr-26" style="edgeStyle=orthogonalEdgeStyle;rounded=0;orthogonalLoop=1;jettySize=auto;html=1;" parent="1" edge="1">
          <mxGeometry relative="1" as="geometry">
            <mxPoint x="199" y="1330.01" as="targetPoint" />
            <mxPoint x="198.9999999999999" y="1360.01" as="sourcePoint" />
          </mxGeometry>
        </mxCell>
        <mxCell id="ulZsRQke4o-UjUVJtsJr-28" style="edgeStyle=orthogonalEdgeStyle;rounded=0;orthogonalLoop=1;jettySize=auto;html=1;exitX=0.5;exitY=0;exitDx=0;exitDy=0;" parent="1" edge="1">
          <mxGeometry relative="1" as="geometry">
            <mxPoint x="310.0025287356322" y="1330.01" as="targetPoint" />
            <mxPoint x="310.05999999999995" y="1360.01" as="sourcePoint" />
          </mxGeometry>
        </mxCell>
        <mxCell id="ulZsRQke4o-UjUVJtsJr-12" value="&lt;span style=&quot;font-size: 18px;&quot;&gt;3-bit&lt;/span&gt;&lt;div&gt;&lt;span style=&quot;font-size: 18px;&quot;&gt;sequence counter&lt;/span&gt;&lt;/div&gt;&lt;div&gt;&lt;span style=&quot;font-size: 18px;&quot;&gt;(SC)&lt;/span&gt;&lt;/div&gt;" style="rounded=0;whiteSpace=wrap;html=1;fillStyle=auto;labelBackgroundColor=none;fillColor=#182E3E;strokeColor=#FFFFFF;fontColor=#FFFFFF;" parent="1" vertex="1">
          <mxGeometry x="160" y="1360.01" width="190" height="73.75" as="geometry" />
        </mxCell>
        <mxCell id="ulZsRQke4o-UjUVJtsJr-21" style="edgeStyle=orthogonalEdgeStyle;rounded=0;orthogonalLoop=1;jettySize=auto;html=1;entryX=1;entryY=0.25;entryDx=0;entryDy=0;" parent="1" source="ulZsRQke4o-UjUVJtsJr-15" target="ulZsRQke4o-UjUVJtsJr-12" edge="1">
          <mxGeometry relative="1" as="geometry" />
        </mxCell>
        <mxCell id="ulZsRQke4o-UjUVJtsJr-15" value="Increment" style="text;html=1;align=center;verticalAlign=middle;resizable=0;points=[];autosize=1;strokeColor=none;fillColor=none;" parent="1" vertex="1">
          <mxGeometry x="390" y="1351.88" width="80" height="30" as="geometry" />
        </mxCell>
        <mxCell id="ulZsRQke4o-UjUVJtsJr-20" style="edgeStyle=orthogonalEdgeStyle;rounded=0;orthogonalLoop=1;jettySize=auto;html=1;entryX=1;entryY=0.5;entryDx=0;entryDy=0;" parent="1" source="ulZsRQke4o-UjUVJtsJr-16" target="ulZsRQke4o-UjUVJtsJr-12" edge="1">
          <mxGeometry relative="1" as="geometry" />
        </mxCell>
        <mxCell id="ulZsRQke4o-UjUVJtsJr-16" value="Clear" style="text;html=1;align=center;verticalAlign=middle;resizable=0;points=[];autosize=1;strokeColor=none;fillColor=none;" parent="1" vertex="1">
          <mxGeometry x="390" y="1381.88" width="50" height="30" as="geometry" />
        </mxCell>
        <mxCell id="ulZsRQke4o-UjUVJtsJr-22" style="edgeStyle=orthogonalEdgeStyle;rounded=0;orthogonalLoop=1;jettySize=auto;html=1;entryX=1;entryY=0.75;entryDx=0;entryDy=0;" parent="1" source="ulZsRQke4o-UjUVJtsJr-17" target="ulZsRQke4o-UjUVJtsJr-12" edge="1">
          <mxGeometry relative="1" as="geometry" />
        </mxCell>
        <mxCell id="ulZsRQke4o-UjUVJtsJr-17" value="Clock" style="text;html=1;align=center;verticalAlign=middle;resizable=0;points=[];autosize=1;strokeColor=none;fillColor=none;" parent="1" vertex="1">
          <mxGeometry x="390" y="1411.88" width="50" height="30" as="geometry" />
        </mxCell>
        <mxCell id="ulZsRQke4o-UjUVJtsJr-30" value="&lt;span style=&quot;font-size: 18px;&quot;&gt;decoder 3x8&lt;/span&gt;" style="rounded=0;whiteSpace=wrap;html=1;labelBackgroundColor=none;fillColor=#182E3E;strokeColor=#FFFFFF;fontColor=#FFFFFF;" parent="1" vertex="1">
          <mxGeometry x="160" y="1290" width="190" height="40" as="geometry" />
        </mxCell>
      </root>
    </mxGraphModel>
  </diagram>
</mxfile>
